<svg xmlns="http://www.w3.org/2000/svg">
    <defs>
        <symbol id="email" viewBox="0 0 24 24">
            <path
                d="M13.025 17H3.707l5.963-5.963L12 12.83l2.33-1.794 1.603 1.603a5.463 5.463 0 0 1 1.004-.41l-1.808-1.808L21 5.9v6.72a5.514 5.514 0 0 1 1 .64V5.5A1.504 1.504 0 0 0 20.5 4h-17A1.504 1.504 0 0 0 2 5.5v11A1.5 1.5 0 0 0 3.5 18h9.525c-.015-.165-.025-.331-.025-.5s.01-.335.025-.5zM3 16.293V5.901l5.871 4.52zM20.5 5c.009 0 .016.005.025.005L12 11.57 3.475 5.005c.009 0 .016-.005.025-.005zm-2 8a4.505 4.505 0 0 0-4.5 4.5 4.403 4.403 0 0 0 .05.5 4.49 4.49 0 0 0 4.45 4h.5v-1h-.5a3.495 3.495 0 0 1-3.45-3 3.455 3.455 0 0 1-.05-.5 3.498 3.498 0 0 1 5.947-2.5H20v.513A2.476 2.476 0 0 0 18.5 15a2.5 2.5 0 1 0 1.733 4.295A1.497 1.497 0 0 0 23 18.5v-1a4.555 4.555 0 0 0-4.5-4.5zm0 6a1.498 1.498 0 0 1-1.408-1 1.483 1.483 0 0 1-.092-.5 1.5 1.5 0 0 1 3 0 1.483 1.483 0 0 1-.092.5 1.498 1.498 0 0 1-1.408 1zm3.5-.5a.5.5 0 0 1-1 0v-3.447a3.639 3.639 0 0 1 1 2.447z" />
        </symbol>

        <symbol viewBox="0 0 16 16" id="github">
            <path
                d="M8 1C4.133 1 1 4.13 1 7.993c0 3.09 2.006 5.71 4.787 6.635.35.064.478-.152.478-.337 0-.166-.006-.606-.01-1.19-1.947.423-2.357-.937-2.357-.937-.319-.808-.778-1.023-.778-1.023-.635-.434.048-.425.048-.425.703.05 1.073.72 1.073.72.624 1.07 1.638.76 2.037.582.063-.452.244-.76.444-.935-1.554-.176-3.188-.776-3.188-3.456 0-.763.273-1.388.72-1.876-.072-.177-.312-.888.07-1.85 0 0 .586-.189 1.924.716A6.711 6.711 0 018 4.381c.595.003 1.194.08 1.753.236 1.336-.905 1.923-.717 1.923-.717.382.963.142 1.674.07 1.85.448.49.72 1.114.72 1.877 0 2.686-1.638 3.278-3.197 3.45.251.216.475.643.475 1.296 0 .934-.009 1.688-.009 1.918 0 .187.127.404.482.336A6.996 6.996 0 0015 7.993 6.997 6.997 0 008 1z"></path>
        </symbol>

            <symbol xmlns="http://www.w3.org/2000/svg" viewBox="0 0 16 16" id="linkedin">
              <path d="M12.225 12.225h-1.778V9.44c0-.664-.012-1.519-.925-1.519-.926 0-1.068.724-1.068 1.47v2.834H6.676V6.498h1.707v.783h.024c.348-.594.996-.95 1.684-.925 1.802 0 2.135 1.185 2.135 2.728l-.001 3.14zM4.67 5.715a1.037 1.037 0 01-1.032-1.031c0-.566.466-1.032 1.032-1.032.566 0 1.031.466 1.032 1.032 0 .566-.466 1.032-1.032 1.032zm.889 6.51h-1.78V6.498h1.78v5.727zM13.11 2H2.885A.88.88 0 002 2.866v10.268a.88.88 0 00.885.866h10.226a.882.882 0 00.889-.866V2.865a.88.88 0 00-.889-.864z"></path>
            </symbol>


    </defs>
</svg>